<svg version="1.1" xmlns="http://www.w3.org/2000/svg" viewBox="0 0 1027.9525519431663 683.9885667786428" width="1027.9525519431663" height="683.9885667786428">
  <!-- svg-source:excalidraw -->
  
  <defs>
    <style>
      @font-face {
        font-family: "Virgil";
        src: url("https://excalidraw.com/Virgil.woff2");
      }
      @font-face {
        font-family: "Cascadia";
        src: url("https://excalidraw.com/Cascadia.woff2");
      }
    </style>
  </defs>
  <g stroke-linecap="round" transform="translate(50.959240234157676 199.37435514537734) rotate(0 65.5 35.50175476074219)"><path d="M0 0 C44.92 0, 89.84 0, 131 0 M0 0 C48.76 0, 97.52 0, 131 0 M131 0 C131 24.55, 131 49.11, 131 71 M131 0 C131 14.68, 131 29.36, 131 71 M131 71 C103.97 71, 76.93 71, 0 71 M131 71 C87.08 71, 43.15 71, 0 71 M0 71 C0 45.11, 0 19.21, 0 0 M0 71 C0 48.88, 0 26.76, 0 0" stroke="#000000" stroke-width="1" fill="none"></path></g><g transform="translate(55.959240234157676 223.37610990611952) rotate(0 60.5 11.5)"><text x="60.5" y="19" font-family="Helvetica, Segoe UI Emoji" font-size="20px" fill="#000000" text-anchor="middle" style="white-space: pre;" direction="ltr">Initial</text></g><g stroke-linecap="round" transform="translate(324.2422602536889 103.29301054088515) rotate(0 65.5 35.50175476074219)"><path d="M0 0 C31.54 0, 63.08 0, 131 0 M0 0 C41.76 0, 83.52 0, 131 0 M131 0 C131 24.2, 131 48.4, 131 71 M131 0 C131 15.98, 131 31.97, 131 71 M131 71 C82.73 71, 34.47 71, 0 71 M131 71 C86 71, 41.01 71, 0 71 M0 71 C0 46.22, 0 21.44, 0 0 M0 71 C0 45.1, 0 19.2, 0 0" stroke="#000000" stroke-width="1" fill="none"></path></g><g transform="translate(329.2422602536889 127.29476530162734) rotate(0 60.5 11.5)"><text x="60.5" y="19" font-family="Helvetica, Segoe UI Emoji" font-size="20px" fill="#000000" text-anchor="middle" style="white-space: pre;" direction="ltr">Word</text></g><g stroke-linecap="round" transform="translate(324.6192744138452 291.9031179627601) rotate(0 65.5 35.50175476074219)"><path d="M0 0 C49.43 0, 98.87 0, 131 0 M0 0 C39.93 0, 79.87 0, 131 0 M131 0 C131 15.35, 131 30.71, 131 71 M131 0 C131 25.84, 131 51.67, 131 71 M131 71 C85.38 71, 39.76 71, 0 71 M131 71 C101.14 71, 71.28 71, 0 71 M0 71 C0 53.13, 0 35.25, 0 0 M0 71 C0 53.25, 0 35.51, 0 0" stroke="#000000" stroke-width="1" fill="none"></path></g><g transform="translate(329.6192744138452 315.9048727235023) rotate(0 60.5 11.5)"><text x="60.5" y="19" font-family="Helvetica, Segoe UI Emoji" font-size="20px" fill="#000000" text-anchor="middle" style="white-space: pre;" direction="ltr">Digit</text></g><g stroke-linecap="round" transform="translate(562.907299316189 363.9090994080726) rotate(0 65.5 35.50175476074219)"><path d="M0 0 C40 0, 80 0, 131 0 M0 0 C50.74 0, 101.48 0, 131 0 M131 0 C131 17.43, 131 34.87, 131 71 M131 0 C131 20.62, 131 41.24, 131 71 M131 71 C81.14 71, 31.28 71, 0 71 M131 71 C86.97 71, 42.95 71, 0 71 M0 71 C0 55.07, 0 39.14, 0 0 M0 71 C0 50.49, 0 29.99, 0 0" stroke="#000000" stroke-width="1" fill="none"></path></g><g transform="translate(567.907299316189 387.9108541688148) rotate(0 60.5 11.5)"><text x="60.5" y="19" font-family="Helvetica, Segoe UI Emoji" font-size="20px" fill="#000000" text-anchor="middle" style="white-space: pre;" direction="ltr">Time</text></g><g stroke-linecap="round" transform="translate(834.5434687497827 193.3429983338539) rotate(0 65.5 35.50175476074219)"><path d="M0 0 C46.16 0, 92.33 0, 131 0 M0 0 C37.47 0, 74.94 0, 131 0 M131 0 C131 21.07, 131 42.14, 131 71 M131 0 C131 22.93, 131 45.87, 131 71 M131 71 C84.13 71, 37.26 71, 0 71 M131 71 C89.06 71, 47.13 71, 0 71 M0 71 C0 50.61, 0 30.22, 0 0 M0 71 C0 51.27, 0 31.53, 0 0" stroke="#000000" stroke-width="1" fill="none"></path></g><g transform="translate(839.5434687497827 217.3447530945961) rotate(0 60.5 11.5)"><text x="60.5" y="19" font-family="Helvetica, Segoe UI Emoji" font-size="20px" fill="#000000" text-anchor="middle" style="white-space: pre;" direction="ltr">Error</text></g><g stroke-linecap="round" transform="translate(322.7890742185327 468.3101919373695) rotate(0 65.5 35.50175476074219)"><path d="M0 0 C44.22 0, 88.44 0, 131 0 M0 0 C29.84 0, 59.68 0, 131 0 M131 0 C131 25.69, 131 51.38, 131 71 M131 0 C131 23.44, 131 46.88, 131 71 M131 71 C81.75 71, 32.49 71, 0 71 M131 71 C98.55 71, 66.1 71, 0 71 M0 71 C0 46.53, 0 22.06, 0 0 M0 71 C0 44.98, 0 18.95, 0 0" stroke="#000000" stroke-width="1" fill="none"></path></g><g transform="translate(327.7890742185327 492.3119466981117) rotate(0 60.5 11.5)"><text x="60.5" y="19" font-family="Helvetica, Segoe UI Emoji" font-size="20px" fill="#000000" text-anchor="middle" style="white-space: pre;" direction="ltr">Float</text></g><g stroke-linecap="round"><g transform="translate(188.98322705056393 236.2889974793617) rotate(0 61.484039306640625 -43.64080810546875)"><path d="M0 0 C20.49 -14.55, 102.47 -72.73, 122.97 -87.28 M0 0 C20.49 -14.55, 102.47 -72.73, 122.97 -87.28" stroke="#000000" stroke-width="1" fill="none"></path></g><g transform="translate(188.98322705056393 236.2889974793617) rotate(0 61.484039306640625 -43.64080810546875)"><path d="M105.92 -62.6 C112.25 -71.77, 118.58 -80.94, 122.97 -87.28 M105.92 -62.6 C111.26 -70.33, 116.6 -78.06, 122.97 -87.28" stroke="#000000" stroke-width="1" fill="none"></path></g><g transform="translate(188.98322705056393 236.2889974793617) rotate(0 61.484039306640625 -43.64080810546875)"><path d="M94.04 -79.33 C104.79 -82.28, 115.53 -85.24, 122.97 -87.28 M94.04 -79.33 C103.1 -81.82, 112.16 -84.31, 122.97 -87.28" stroke="#000000" stroke-width="1" fill="none"></path></g></g><g transform="translate(183.83323315407955 155.86999113170546) rotate(0 38 11.5)"><text x="0" y="19" font-family="Helvetica, Segoe UI Emoji" font-size="20px" fill="#000000" text-anchor="start" style="white-space: pre;" direction="ltr">a-z | A-Z</text></g><g stroke-linecap="round"><g transform="translate(183.36054638650143 259.5773275574867) rotate(0 65.13156127929688 33.97438049316406)"><path d="M0 0 C21.71 11.32, 108.55 56.62, 130.26 67.95 M0 0 C21.71 11.32, 108.55 56.62, 130.26 67.95" stroke="#000000" stroke-width="1" fill="none"></path></g><g transform="translate(183.36054638650143 259.5773275574867) rotate(0 65.13156127929688 33.97438049316406)"><path d="M100.52 64.01 C107.83 64.98, 115.15 65.95, 130.26 67.95 M100.52 64.01 C112.28 65.57, 124.03 67.12, 130.26 67.95" stroke="#000000" stroke-width="1" fill="none"></path></g><g transform="translate(183.36054638650143 259.5773275574867) rotate(0 65.13156127929688 33.97438049316406)"><path d="M110.01 45.81 C114.99 51.26, 119.97 56.7, 130.26 67.95 M110.01 45.81 C118.02 54.56, 126.02 63.31, 130.26 67.95" stroke="#000000" stroke-width="1" fill="none"></path></g></g><g transform="translate(196.39277294900143 292.1881674012367) rotate(0 15 11.5)"><text x="0" y="19" font-family="Helvetica, Segoe UI Emoji" font-size="20px" fill="#000000" text-anchor="start" style="white-space: pre;" direction="ltr">0-9</text></g><g stroke-linecap="round"><g transform="translate(385.6663935544702 373.50451261608043) rotate(0 0.1044921875 40.111480712890625)"><path d="M0 0 C0.03 13.37, 0.17 66.85, 0.21 80.22 M0 0 C0.03 13.37, 0.17 66.85, 0.21 80.22" stroke="#000000" stroke-width="1" fill="none"></path></g><g transform="translate(385.6663935544702 373.50451261608043) rotate(0 0.1044921875 40.111480712890625)"><path d="M-10.13 52.06 C-6.21 62.73, -2.3 73.4, 0.21 80.22 M-10.13 52.06 C-6.04 63.2, -1.95 74.33, 0.21 80.22" stroke="#000000" stroke-width="1" fill="none"></path></g><g transform="translate(385.6663935544702 373.50451261608043) rotate(0 0.1044921875 40.111480712890625)"><path d="M10.4 52.01 C6.54 62.7, 2.68 73.38, 0.21 80.22 M10.4 52.01 C6.37 63.16, 2.34 74.32, 0.21 80.22" stroke="#000000" stroke-width="1" fill="none"></path></g></g><g transform="translate(366.0446894529077 381.98449308483043) rotate(0 3.5 11.5)"><text x="0" y="19" font-family="Helvetica, Segoe UI Emoji" font-size="20px" fill="#000000" text-anchor="start" style="white-space: pre;" direction="ltr">.</text></g><g stroke-linecap="round"><g transform="translate(464.2563593747827 326.92675382701793) rotate(0 77.79095458984375 16.366973876953125)"><path d="M0 0 C25.93 5.46, 129.65 27.28, 155.58 32.73 M0 0 C25.93 5.46, 129.65 27.28, 155.58 32.73" stroke="#000000" stroke-width="1" fill="none"></path></g><g transform="translate(464.2563593747827 326.92675382701793) rotate(0 77.79095458984375 16.366973876953125)"><path d="M125.88 36.97 C134.5 35.74, 143.11 34.51, 155.58 32.73 M125.88 36.97 C132.4 36.04, 138.92 35.11, 155.58 32.73" stroke="#000000" stroke-width="1" fill="none"></path></g><g transform="translate(464.2563593747827 326.92675382701793) rotate(0 77.79095458984375 16.366973876953125)"><path d="M130.11 16.89 C137.5 21.49, 144.89 26.08, 155.58 32.73 M130.11 16.89 C135.7 20.37, 141.29 23.84, 155.58 32.73" stroke="#000000" stroke-width="1" fill="none"></path></g></g><g transform="translate(517.932201659939 346.10940153209606) rotate(0 3.5 11.5)"><text x="0" y="19" font-family="Helvetica, Segoe UI Emoji" font-size="20px" fill="#000000" text-anchor="start" style="white-space: pre;" direction="ltr">:</text></g><g stroke-linecap="round"><g transform="translate(456.6658442380639 133.08895475475234) rotate(0 6.13589861032375 39.41543393998096)"><path d="M0 0 C8.23 0.84, 47.53 -8.3, 49.37 5.03 C51.21 18.36, 25.46 72.39, 11.04 79.96 C-3.39 87.54, -29.16 55.39, -37.2 50.48 M0 0 C8.23 0.84, 47.53 -8.3, 49.37 5.03 C51.21 18.36, 25.46 72.39, 11.04 79.96 C-3.39 87.54, -29.16 55.39, -37.2 50.48" stroke="#000000" stroke-width="1" fill="none"></path></g><g transform="translate(456.6658442380639 133.08895475475234) rotate(0 6.13589861032375 39.41543393998096)"><path d="M-10.91 60.87 C-18.87 57.73, -26.82 54.58, -37.2 50.48 M-10.91 60.87 C-19.85 57.34, -28.78 53.8, -37.2 50.48" stroke="#000000" stroke-width="1" fill="none"></path></g><g transform="translate(456.6658442380639 133.08895475475234) rotate(0 6.13589861032375 39.41543393998096)"><path d="M-23.74 75.33 C-27.81 67.81, -31.89 60.29, -37.2 50.48 M-23.74 75.33 C-28.32 66.88, -32.89 58.44, -37.2 50.48" stroke="#000000" stroke-width="1" fill="none"></path></g></g><g transform="translate(503.5483515622827 173.33398038951796) rotate(0 69.5 11.5)"><text x="0" y="19" font-family="Helvetica, Segoe UI Emoji" font-size="20px" fill="#000000" text-anchor="start" style="white-space: pre;" direction="ltr">a-z | A-Z | - | -\n</text></g><g stroke-linecap="round"><g transform="translate(382.5063593747827 183.71178800670546) rotate(0 -94.39788818359375 31.20550537109375)"><path d="M0 0 C-14.78 8.05, -57.2 37.87, -88.66 48.27 C-120.13 58.68, -172.11 60.05, -188.8 62.41 M0 0 C-14.78 8.05, -57.2 37.87, -88.66 48.27 C-120.13 58.68, -172.11 60.05, -188.8 62.41" stroke="#000000" stroke-width="1" fill="none"></path></g><g transform="translate(382.5063593747827 183.71178800670546) rotate(0 -94.39788818359375 31.20550537109375)"><path d="M-161.67 49.6 C-170.52 53.78, -179.37 57.96, -188.8 62.41 M-161.67 49.6 C-169.03 53.08, -176.4 56.56, -188.8 62.41" stroke="#000000" stroke-width="1" fill="none"></path></g><g transform="translate(382.5063593747827 183.71178800670546) rotate(0 -94.39788818359375 31.20550537109375)"><path d="M-159.78 70.04 C-169.25 67.55, -178.71 65.06, -188.8 62.41 M-159.78 70.04 C-167.66 67.97, -175.53 65.9, -188.8 62.41" stroke="#000000" stroke-width="1" fill="none"></path></g></g><g transform="translate(256.01292065407955 240.14757902233046) rotate(0 41 11.5)"><text x="0" y="19" font-family="Helvetica, Segoe UI Emoji" font-size="20px" fill="#000000" text-anchor="start" style="white-space: pre;" direction="ltr">space | . </text></g><g stroke-linecap="round"><g transform="translate(424.4267695310327 95.88117582408827) rotate(0 231.68743896484375 33.5323029677665)"><path d="M0 0 C42.41 -1.75, 177.24 -24.14, 254.47 -10.48 C331.7 3.18, 428.56 66.53, 463.37 81.94 M0 0 C42.41 -1.75, 177.24 -24.14, 254.47 -10.48 C331.7 3.18, 428.56 66.53, 463.37 81.94" stroke="#000000" stroke-width="1" fill="none"></path></g><g transform="translate(424.4267695310327 95.88117582408827) rotate(0 231.68743896484375 33.5323029677665)"><path d="M433.65 77.87 C444.38 79.34, 455.12 80.81, 463.37 81.94 M433.65 77.87 C445.21 79.45, 456.76 81.03, 463.37 81.94" stroke="#000000" stroke-width="1" fill="none"></path></g><g transform="translate(424.4267695310327 95.88117582408827) rotate(0 231.68743896484375 33.5323029677665)"><path d="M443.22 59.72 C450.5 67.74, 457.77 75.76, 463.37 81.94 M443.22 59.72 C451.05 68.36, 458.89 77, 463.37 81.94" stroke="#000000" stroke-width="1" fill="none"></path></g></g><g stroke-linecap="round"><g transform="translate(420.5790522458764 289.6902731141273) rotate(0 30.16422092036362 -7.763878012582694)"><path d="M0 0 C8.99 -6.44, 44.34 -41.66, 53.95 -38.63 C63.55 -35.6, 60.14 8.24, 57.62 18.17 C55.11 28.09, 42 20.45, 38.88 20.91 M0 0 C8.99 -6.44, 44.34 -41.66, 53.95 -38.63 C63.55 -35.6, 60.14 8.24, 57.62 18.17 C55.11 28.09, 42 20.45, 38.88 20.91" stroke="#000000" stroke-width="1" fill="none"></path></g><g transform="translate(420.5790522458764 289.6902731141273) rotate(0 30.16422092036362 -7.763878012582694)"><path d="M48.27 19.64 C45.45 20.02, 42.64 20.4, 38.88 20.91 M48.27 19.64 C44.73 20.12, 41.19 20.6, 38.88 20.91" stroke="#000000" stroke-width="1" fill="none"></path></g><g transform="translate(420.5790522458764 289.6902731141273) rotate(0 30.16422092036362 -7.763878012582694)"><path d="M46.89 25.97 C44.48 24.45, 42.08 22.94, 38.88 20.91 M46.89 25.97 C43.87 24.06, 40.85 22.15, 38.88 20.91" stroke="#000000" stroke-width="1" fill="none"></path></g></g><g transform="translate(500.58689526345455 270.0050619324867) rotate(0 15 11.5)"><text x="0" y="19" font-family="Helvetica, Segoe UI Emoji" font-size="20px" fill="#000000" text-anchor="start" style="white-space: pre;" direction="ltr">0-9</text></g><g stroke-linecap="round"><g transform="translate(330.90855053689205 376.2527425965492) rotate(0 -102.28190464704215 -35.56073521610816)"><path d="M0 0 C-31.57 2.63, -157.22 30.99, -189.4 15.76 C-221.58 0.54, -192.45 -73.5, -193.06 -91.35 M0 0 C-31.57 2.63, -157.22 30.99, -189.4 15.76 C-221.58 0.54, -192.45 -73.5, -193.06 -91.35" stroke="#000000" stroke-width="1" fill="none"></path></g><g transform="translate(330.90855053689205 376.2527425965492) rotate(0 -102.28190464704215 -35.56073521610816)"><path d="M-187.91 -61.79 C-189.69 -72.03, -191.47 -82.26, -193.06 -91.35 M-187.91 -61.79 C-189.68 -71.96, -191.45 -82.14, -193.06 -91.35" stroke="#000000" stroke-width="1" fill="none"></path></g><g transform="translate(330.90855053689205 376.2527425965492) rotate(0 -102.28190464704215 -35.56073521610816)"><path d="M-208.11 -65.4 C-202.9 -74.38, -197.69 -83.37, -193.06 -91.35 M-208.11 -65.4 C-202.93 -74.33, -197.75 -83.26, -193.06 -91.35" stroke="#000000" stroke-width="1" fill="none"></path></g></g><g transform="translate(206.96589306618893 396.5488851746742) rotate(0 41 11.5)"><text x="0" y="19" font-family="Helvetica, Segoe UI Emoji" font-size="20px" fill="#000000" text-anchor="start" style="white-space: pre;" direction="ltr">space | . </text></g><g stroke-linecap="round"><g transform="translate(317.4444697263452 515.1311605652992) rotate(0 -104.54869613277742 -116.30422973632812)"><path d="M0 0 C-31.75 -6.35, -156.58 0.66, -190.47 -38.11 C-224.36 -76.88, -201.21 -200.19, -203.36 -232.61 M0 0 C-31.75 -6.35, -156.58 0.66, -190.47 -38.11 C-224.36 -76.88, -201.21 -200.19, -203.36 -232.61" stroke="#000000" stroke-width="1" fill="none"></path></g><g transform="translate(317.4444697263452 515.1311605652992) rotate(0 -104.54869613277742 -116.30422973632812)"><path d="M-194.65 -203.9 C-197.36 -212.84, -200.07 -221.77, -203.36 -232.61 M-194.65 -203.9 C-196.82 -211.04, -198.98 -218.19, -203.36 -232.61" stroke="#000000" stroke-width="1" fill="none"></path></g><g transform="translate(317.4444697263452 515.1311605652992) rotate(0 -104.54869613277742 -116.30422973632812)"><path d="M-215.14 -205.02 C-211.47 -213.61, -207.81 -222.2, -203.36 -232.61 M-215.14 -205.02 C-212.21 -211.88, -209.28 -218.75, -203.36 -232.61" stroke="#000000" stroke-width="1" fill="none"></path></g></g><g transform="translate(197.84998730447018 477.4644125184242) rotate(0 41 11.5)"><text x="0" y="19" font-family="Helvetica, Segoe UI Emoji" font-size="20px" fill="#000000" text-anchor="start" style="white-space: pre;" direction="ltr">space | . </text></g><g stroke-linecap="round"><g transform="translate(426.95367077614986 464.0393942078773) rotate(0 30.16422092036362 -7.7638780125827225)"><path d="M0 0 C8.99 -6.44, 44.34 -41.66, 53.95 -38.63 C63.55 -35.6, 60.14 8.24, 57.62 18.17 C55.11 28.09, 42 20.45, 38.88 20.91 M0 0 C8.99 -6.44, 44.34 -41.66, 53.95 -38.63 C63.55 -35.6, 60.14 8.24, 57.62 18.17 C55.11 28.09, 42 20.45, 38.88 20.91" stroke="#000000" stroke-width="1" fill="none"></path></g><g transform="translate(426.95367077614986 464.0393942078773) rotate(0 30.16422092036362 -7.7638780125827225)"><path d="M48.27 19.64 C45.09 20.07, 41.92 20.5, 38.88 20.91 M48.27 19.64 C45.27 20.05, 42.28 20.45, 38.88 20.91" stroke="#000000" stroke-width="1" fill="none"></path></g><g transform="translate(426.95367077614986 464.0393942078773) rotate(0 30.16422092036362 -7.7638780125827225)"><path d="M46.89 25.97 C44.18 24.26, 41.47 22.55, 38.88 20.91 M46.89 25.97 C44.33 24.36, 41.78 22.74, 38.88 20.91" stroke="#000000" stroke-width="1" fill="none"></path></g></g><g transform="translate(506.961513793728 444.3541830262367) rotate(0 15 11.5)"><text x="0" y="19" font-family="Helvetica, Segoe UI Emoji" font-size="20px" fill="#000000" text-anchor="start" style="white-space: pre;" direction="ltr">0-9</text></g><g stroke-linecap="round"><g transform="translate(673.1184656980249 358.64745695201793) rotate(0 30.16422092036362 -7.763878012582694)"><path d="M0 0 C8.99 -6.44, 44.34 -41.66, 53.95 -38.63 C63.55 -35.6, 60.14 8.24, 57.62 18.17 C55.11 28.09, 42 20.45, 38.88 20.91 M0 0 C8.99 -6.44, 44.34 -41.66, 53.95 -38.63 C63.55 -35.6, 60.14 8.24, 57.62 18.17 C55.11 28.09, 42 20.45, 38.88 20.91" stroke="#000000" stroke-width="1" fill="none"></path></g><g transform="translate(673.1184656980249 358.64745695201793) rotate(0 30.16422092036362 -7.763878012582694)"><path d="M48.27 19.64 C46.06 19.94, 43.84 20.24, 38.88 20.91 M48.27 19.64 C44.87 20.1, 41.47 20.56, 38.88 20.91" stroke="#000000" stroke-width="1" fill="none"></path></g><g transform="translate(673.1184656980249 358.64745695201793) rotate(0 30.16422092036362 -7.763878012582694)"><path d="M46.89 25.97 C45 24.78, 43.11 23.59, 38.88 20.91 M46.89 25.97 C43.99 24.14, 41.09 22.3, 38.88 20.91" stroke="#000000" stroke-width="1" fill="none"></path></g></g><g transform="translate(753.126308715603 338.9622457703773) rotate(0 15 11.5)"><text x="0" y="19" font-family="Helvetica, Segoe UI Emoji" font-size="20px" fill="#000000" text-anchor="start" style="white-space: pre;" direction="ltr">0-9</text></g><g stroke-linecap="round"><g transform="translate(640.3078120115015 447.33446867076793) rotate(0 -266.55469171324324 34.47216013792183)"><path d="M0 0 C-4.39 33.77, 56.06 172.21, -26.34 202.64 C-108.74 233.07, -407.53 242.63, -494.41 182.57 C-581.28 122.52, -538.73 -101, -547.6 -157.71 M0 0 C-4.39 33.77, 56.06 172.21, -26.34 202.64 C-108.74 233.07, -407.53 242.63, -494.41 182.57 C-581.28 122.52, -538.73 -101, -547.6 -157.71" stroke="#000000" stroke-width="1" fill="none"></path></g><g transform="translate(640.3078120115015 447.33446867076793) rotate(0 -266.55469171324324 34.47216013792183)"><path d="M-537.67 -129.4 C-541.12 -139.24, -544.57 -149.07, -547.6 -157.71 M-537.67 -129.4 C-539.76 -135.36, -541.85 -141.32, -547.6 -157.71" stroke="#000000" stroke-width="1" fill="none"></path></g><g transform="translate(640.3078120115015 447.33446867076793) rotate(0 -266.55469171324324 34.47216013792183)"><path d="M-558.19 -129.64 C-554.51 -139.39, -550.83 -149.15, -547.6 -157.71 M-558.19 -129.64 C-555.96 -135.55, -553.73 -141.46, -547.6 -157.71" stroke="#000000" stroke-width="1" fill="none"></path></g></g><g transform="translate(189.4166682126733 623.2401693543617) rotate(0 41 11.5)"><text x="0" y="19" font-family="Helvetica, Segoe UI Emoji" font-size="20px" fill="#000000" text-anchor="start" style="white-space: pre;" direction="ltr">space | . </text></g><g stroke-linecap="round"><g transform="translate(469.4754755857202 323.73437101451793) rotate(0 172.01806640625 -42.95808410644531)"><path d="M0 0 C57.34 -14.32, 286.7 -71.6, 344.04 -85.92 M0 0 C57.34 -14.32, 286.7 -71.6, 344.04 -85.92" stroke="#000000" stroke-width="1" fill="none"></path></g><g transform="translate(469.4754755857202 323.73437101451793) rotate(0 172.01806640625 -42.95808410644531)"><path d="M319.17 -69.13 C325.6 -73.47, 332.03 -77.81, 344.04 -85.92 M319.17 -69.13 C328.99 -75.76, 338.81 -82.39, 344.04 -85.92" stroke="#000000" stroke-width="1" fill="none"></path></g><g transform="translate(469.4754755857202 323.73437101451793) rotate(0 172.01806640625 -42.95808410644531)"><path d="M314.2 -89.04 C321.91 -88.23, 329.62 -87.43, 344.04 -85.92 M314.2 -89.04 C325.98 -87.81, 337.77 -86.57, 344.04 -85.92" stroke="#000000" stroke-width="1" fill="none"></path></g></g><g stroke-linecap="round"><g transform="translate(708.308422363064 418.17309171764293) rotate(0 98.02041625976562 -70.4390869140625)"><path d="M0 0 C32.67 -23.48, 163.37 -117.4, 196.04 -140.88 M0 0 C32.67 -23.48, 163.37 -117.4, 196.04 -140.88" stroke="#000000" stroke-width="1" fill="none"></path></g><g transform="translate(708.308422363064 418.17309171764293) rotate(0 98.02041625976562 -70.4390869140625)"><path d="M179.14 -116.09 C182.86 -121.56, 186.59 -127.02, 196.04 -140.88 M179.14 -116.09 C183.55 -122.56, 187.96 -129.03, 196.04 -140.88" stroke="#000000" stroke-width="1" fill="none"></path></g><g transform="translate(708.308422363064 418.17309171764293) rotate(0 98.02041625976562 -70.4390869140625)"><path d="M167.16 -132.76 C173.53 -134.55, 179.89 -136.34, 196.04 -140.88 M167.16 -132.76 C174.69 -134.88, 182.23 -137, 196.04 -140.88" stroke="#000000" stroke-width="1" fill="none"></path></g></g><g stroke-linecap="round"><g transform="translate(457.5861933591577 530.4850424012367) rotate(0 280.1831792920043 -119.23035844109046)"><path d="M0 0 C89.43 -0.85, 458.95 37.11, 536.6 -5.11 C614.26 -47.33, 477.72 -211.95, 465.95 -253.32 M0 0 C89.43 -0.85, 458.95 37.11, 536.6 -5.11 C614.26 -47.33, 477.72 -211.95, 465.95 -253.32" stroke="#000000" stroke-width="1" fill="none"></path></g><g transform="translate(457.5861933591577 530.4850424012367) rotate(0 280.1831792920043 -119.23035844109046)"><path d="M488.52 -233.57 C480.59 -240.51, 472.66 -247.45, 465.95 -253.32 M488.52 -233.57 C482.3 -239.01, 476.08 -244.46, 465.95 -253.32" stroke="#000000" stroke-width="1" fill="none"></path></g><g transform="translate(457.5861933591577 530.4850424012367) rotate(0 280.1831792920043 -119.23035844109046)"><path d="M470.54 -223.68 C468.93 -234.09, 467.31 -244.51, 465.95 -253.32 M470.54 -223.68 C469.27 -231.85, 468.01 -240.02, 465.95 -253.32" stroke="#000000" stroke-width="1" fill="none"></path></g></g><g transform="translate(684.5405390622827 59.644786663932024) rotate(0 23.5 11.5)"><text x="0" y="19" font-family="Helvetica, Segoe UI Emoji" font-size="20px" fill="#000000" text-anchor="start" style="white-space: pre;" direction="ltr">other</text></g><g transform="translate(664.8981440427515 227.7966573914711) rotate(0 23.5 11.5)"><text x="0" y="19" font-family="Helvetica, Segoe UI Emoji" font-size="20px" fill="#000000" text-anchor="start" style="white-space: pre;" direction="ltr">other</text></g><g transform="translate(804.4928095700952 356.11681730358043) rotate(0 23.5 11.5)"><text x="0" y="19" font-family="Helvetica, Segoe UI Emoji" font-size="20px" fill="#000000" text-anchor="start" style="white-space: pre;" direction="ltr">other</text></g><g transform="translate(817.5899775388452 510.64733488170543) rotate(0 23.5 11.5)"><text x="0" y="19" font-family="Helvetica, Segoe UI Emoji" font-size="20px" fill="#000000" text-anchor="start" style="white-space: pre;" direction="ltr">other</text></g><g stroke-linecap="round"><g transform="translate(95.45008496072018 194.29760343639296) rotate(0 -42.725042480360116 31.593885629179567)"><path d="M0 0 C-9.79 -8.96, -44.72 -72.71, -58.72 -53.74 C-72.72 -34.77, -90.71 90.4, -84 113.82 C-77.29 137.24, -29.36 91.29, -18.44 86.79 M0 0 C-9.79 -8.96, -44.72 -72.71, -58.72 -53.74 C-72.72 -34.77, -90.71 90.4, -84 113.82 C-77.29 137.24, -29.36 91.29, -18.44 86.79" stroke="#000000" stroke-width="1" fill="none"></path></g><g transform="translate(95.45008496072018 194.29760343639296) rotate(0 -42.725042480360116 31.593885629179567)"><path d="M-35.78 111.26 C-29.49 102.38, -23.19 93.49, -18.44 86.79 M-35.78 111.26 C-30.97 104.47, -26.15 97.67, -18.44 86.79" stroke="#000000" stroke-width="1" fill="none"></path></g><g transform="translate(95.45008496072018 194.29760343639296) rotate(0 -42.725042480360116 31.593885629179567)"><path d="M-47.46 94.39 C-36.92 91.63, -26.39 88.87, -18.44 86.79 M-47.46 94.39 C-39.4 92.28, -31.34 90.17, -18.44 86.79" stroke="#000000" stroke-width="1" fill="none"></path></g></g><g transform="translate(21.094860351345176 108.09347135631484) rotate(0 63.5 11.5)"><text x="0" y="19" font-family="Helvetica, Segoe UI Emoji" font-size="20px" fill="#000000" text-anchor="start" style="white-space: pre;" direction="ltr">space | . | : | - </text></g><g stroke-linecap="round"><g transform="translate(113.11082104470455 202.6646993836586) rotate(0 399.6334991455078 -96.3323496918293)"><path d="M0 0 C46.52 -30.61, 156.08 -158.66, 279.14 -183.67 C402.2 -208.67, 651.68 -176.35, 738.37 -150.06 C825.06 -123.76, 789.12 -46.57, 799.27 -25.87 M0 0 C46.52 -30.61, 156.08 -158.66, 279.14 -183.67 C402.2 -208.67, 651.68 -176.35, 738.37 -150.06 C825.06 -123.76, 789.12 -46.57, 799.27 -25.87" stroke="#000000" stroke-width="1" fill="none"></path></g><g transform="translate(113.11082104470455 202.6646993836586) rotate(0 399.6334991455078 -96.3323496918293)"><path d="M787.88 -53.63 C791.07 -45.84, 794.27 -38.06, 799.27 -25.87 M787.88 -53.63 C792.3 -42.86, 796.72 -32.08, 799.27 -25.87" stroke="#000000" stroke-width="1" fill="none"></path></g><g transform="translate(113.11082104470455 202.6646993836586) rotate(0 399.6334991455078 -96.3323496918293)"><path d="M808.39 -54.45 C805.83 -46.44, 803.27 -38.42, 799.27 -25.87 M808.39 -54.45 C804.85 -43.36, 801.31 -32.27, 799.27 -25.87" stroke="#000000" stroke-width="1" fill="none"></path></g></g><g transform="translate(224.77576855447018 44.8805959901039) rotate(0 23.5 11.5)"><text x="0" y="19" font-family="Helvetica, Segoe UI Emoji" font-size="20px" fill="#000000" text-anchor="start" style="white-space: pre;" direction="ltr">other</text></g></svg>