<svg version="1.1" xmlns="http://www.w3.org/2000/svg" viewBox="0 0 860.314453125 598.4231262207031" width="860.314453125" height="598.4231262207031">
  <!-- svg-source:excalidraw -->
  
  <defs>
    <style>
      @font-face {
        font-family: "Virgil";
        src: url("https://excalidraw.com/Virgil.woff2");
      }
      @font-face {
        font-family: "Cascadia";
        src: url("https://excalidraw.com/Cascadia.woff2");
      }
    </style>
  </defs>
  <g stroke-linecap="round" transform="translate(10 238.92477416992188) rotate(0 65.5 35.50175476074219)"><path d="M0 0 C27.87 0, 55.75 0, 131 0 M0 0 C31.63 0, 63.26 0, 131 0 M131 0 C131 14.58, 131 29.16, 131 71 M131 0 C131 22.67, 131 45.34, 131 71 M131 71 C94.47 71, 57.94 71, 0 71 M131 71 C79 71, 27 71, 0 71 M0 71 C0 56.4, 0 41.8, 0 0 M0 71 C0 47.88, 0 24.76, 0 0" stroke="#000000" stroke-width="1" fill="none"></path></g><g transform="translate(15 262.92652893066406) rotate(0 60.5 11.5)"><text x="60.5" y="19" font-family="Helvetica, Segoe UI Emoji" font-size="20px" fill="#000000" text-anchor="middle" style="white-space: pre;" direction="ltr">Initial</text></g><g stroke-linecap="round" transform="translate(331.6954345703125 111.43280029296875) rotate(0 65.5 35.50175476074219)"><path d="M0 0 C26.81 0, 53.62 0, 131 0 M0 0 C37.84 0, 75.68 0, 131 0 M131 0 C131 22.64, 131 45.28, 131 71 M131 0 C131 28.2, 131 56.4, 131 71 M131 71 C79.89 71, 28.77 71, 0 71 M131 71 C88.65 71, 46.3 71, 0 71 M0 71 C0 42.84, 0 14.69, 0 0 M0 71 C0 49.36, 0 27.72, 0 0" stroke="#000000" stroke-width="1" fill="none"></path></g><g transform="translate(336.6954345703125 135.43455505371094) rotate(0 60.5 11.5)"><text x="60.5" y="19" font-family="Helvetica, Segoe UI Emoji" font-size="20px" fill="#000000" text-anchor="middle" style="white-space: pre;" direction="ltr">Word</text></g><g stroke-linecap="round" transform="translate(342.43438720703125 421.8323059082031) rotate(0 65.5 35.50175476074219)"><path d="M0 0 C52.38 0, 104.77 0, 131 0 M0 0 C26.45 0, 52.89 0, 131 0 M131 0 C131 16.29, 131 32.57, 131 71 M131 0 C131 19.28, 131 38.55, 131 71 M131 71 C89.02 71, 47.05 71, 0 71 M131 71 C83.54 71, 36.08 71, 0 71 M0 71 C0 54.3, 0 37.59, 0 0 M0 71 C0 53.39, 0 35.77, 0 0" stroke="#000000" stroke-width="1" fill="none"></path></g><g transform="translate(347.43438720703125 445.8340606689453) rotate(0 60.5 11.5)"><text x="60.5" y="19" font-family="Helvetica, Segoe UI Emoji" font-size="20px" fill="#000000" text-anchor="middle" style="white-space: pre;" direction="ltr">Digit</text></g><g stroke-linecap="round" transform="translate(719.314453125 243.59588623046875) rotate(0 65.5 35.50175476074219)"><path d="M0 0 C48.05 0, 96.1 0, 131 0 M0 0 C38.84 0, 77.69 0, 131 0 M131 0 C131 17.46, 131 34.92, 131 71 M131 0 C131 24.63, 131 49.26, 131 71 M131 71 C90.24 71, 49.47 71, 0 71 M131 71 C87.73 71, 44.47 71, 0 71 M0 71 C0 44.35, 0 17.7, 0 0 M0 71 C0 53.39, 0 35.77, 0 0" stroke="#000000" stroke-width="1" fill="none"></path></g><g transform="translate(724.314453125 267.59764099121094) rotate(0 60.5 11.5)"><text x="60.5" y="19" font-family="Helvetica, Segoe UI Emoji" font-size="20px" fill="#000000" text-anchor="middle" style="white-space: pre;" direction="ltr">Finial</text></g><g stroke-linecap="round"><g transform="translate(81.10546875 234.33473205566406) rotate(0 123.98233032226562 -43.64166259765625)"><path d="M0 0 C41.33 -14.55, 206.64 -72.74, 247.96 -87.28 M0 0 C41.33 -14.55, 206.64 -72.74, 247.96 -87.28" stroke="#000000" stroke-width="1" fill="none"></path></g><g transform="translate(81.10546875 234.33473205566406) rotate(0 123.98233032226562 -43.64166259765625)"><path d="M224.78 -68.24 C233.43 -75.35, 242.08 -82.45, 247.96 -87.28 M224.78 -68.24 C230.76 -73.15, 236.74 -78.06, 247.96 -87.28" stroke="#000000" stroke-width="1" fill="none"></path></g><g transform="translate(81.10546875 234.33473205566406) rotate(0 123.98233032226562 -43.64166259765625)"><path d="M217.97 -87.6 C229.16 -87.48, 240.35 -87.36, 247.96 -87.28 M217.97 -87.6 C225.7 -87.52, 233.44 -87.44, 247.96 -87.28" stroke="#000000" stroke-width="1" fill="none"></path></g></g><g stroke-linecap="round"><g transform="translate(78.05267333984375 312.88014221191406) rotate(0 128.19131469726562 71.53970336914062)"><path d="M0 0 C42.73 23.85, 213.65 119.23, 256.38 143.08 M0 0 C42.73 23.85, 213.65 119.23, 256.38 143.08" stroke="#000000" stroke-width="1" fill="none"></path></g><g transform="translate(78.05267333984375 312.88014221191406) rotate(0 128.19131469726562 71.53970336914062)"><path d="M226.77 138.3 C233.95 139.46, 241.13 140.62, 256.38 143.08 M226.77 138.3 C233.09 139.32, 239.41 140.34, 256.38 143.08" stroke="#000000" stroke-width="1" fill="none"></path></g><g transform="translate(78.05267333984375 312.88014221191406) rotate(0 128.19131469726562 71.53970336914062)"><path d="M236.77 120.38 C241.52 125.89, 246.28 131.39, 256.38 143.08 M236.77 120.38 C240.95 125.23, 245.14 130.07, 256.38 143.08" stroke="#000000" stroke-width="1" fill="none"></path></g></g><g stroke-linecap="round"><g transform="translate(465.5303955078125 145.9954071044922) rotate(0 116.012939453125 52.497406005859375)"><path d="M0 0 C38.67 17.5, 193.35 87.5, 232.03 104.99 M0 0 C38.67 17.5, 193.35 87.5, 232.03 104.99" stroke="#000000" stroke-width="1" fill="none"></path></g><g transform="translate(465.5303955078125 145.9954071044922) rotate(0 116.012939453125 52.497406005859375)"><path d="M202.11 102.72 C209.47 103.28, 216.83 103.84, 232.03 104.99 M202.11 102.72 C209.27 103.26, 216.43 103.81, 232.03 104.99" stroke="#000000" stroke-width="1" fill="none"></path></g><g transform="translate(465.5303955078125 145.9954071044922) rotate(0 116.012939453125 52.497406005859375)"><path d="M210.57 84.02 C215.85 89.18, 221.12 94.34, 232.03 104.99 M210.57 84.02 C215.71 89.04, 220.84 94.06, 232.03 104.99" stroke="#000000" stroke-width="1" fill="none"></path></g></g><g stroke-linecap="round"><g transform="translate(477.821533203125 463.0371856689453) rotate(0 109.0440673828125 -79.58708190917969)"><path d="M0 0 C36.35 -26.53, 181.74 -132.65, 218.09 -159.17 M0 0 C36.35 -26.53, 181.74 -132.65, 218.09 -159.17" stroke="#000000" stroke-width="1" fill="none"></path></g><g transform="translate(477.821533203125 463.0371856689453) rotate(0 109.0440673828125 -79.58708190917969)"><path d="M201.37 -134.27 C206.32 -141.64, 211.27 -149.02, 218.09 -159.17 M201.37 -134.27 C205.84 -140.93, 210.32 -147.6, 218.09 -159.17" stroke="#000000" stroke-width="1" fill="none"></path></g><g transform="translate(477.821533203125 463.0371856689453) rotate(0 109.0440673828125 -79.58708190917969)"><path d="M189.27 -150.84 C197.8 -153.31, 206.33 -155.78, 218.09 -159.17 M189.27 -150.84 C196.98 -153.07, 204.69 -155.3, 218.09 -159.17" stroke="#000000" stroke-width="1" fill="none"></path></g></g><g transform="translate(172.15753173828125 154.74989318847656) rotate(0 22.5 11.5)"><text x="0" y="19" font-family="Helvetica, Segoe UI Emoji" font-size="20px" fill="#1864ab" text-anchor="start" style="white-space: pre;" direction="ltr">letter</text></g><g stroke-linecap="round" transform="translate(161.14990234375 152.36573791503906) rotate(0 31.2012939453125 14.628982543945312)"><path d="M7.31 0 M7.31 0 C20.32 0, 33.32 0, 55.09 0 M7.31 0 C17.03 0, 26.75 0, 55.09 0 M55.09 0 C59.96 0, 62.4 2.44, 62.4 7.31 M55.09 0 C59.96 0, 62.4 2.44, 62.4 7.31 M62.4 7.31 C62.4 12.62, 62.4 17.93, 62.4 21.94 M62.4 7.31 C62.4 13.05, 62.4 18.79, 62.4 21.94 M62.4 21.94 C62.4 26.82, 59.96 29.26, 55.09 29.26 M62.4 21.94 C62.4 26.82, 59.96 29.26, 55.09 29.26 M55.09 29.26 C37.35 29.26, 19.61 29.26, 7.31 29.26 M55.09 29.26 C36.09 29.26, 17.1 29.26, 7.31 29.26 M7.31 29.26 C2.44 29.26, 0 26.82, 0 21.94 M7.31 29.26 C2.44 29.26, 0 26.82, 0 21.94 M0 21.94 C0 16.25, 0 10.56, 0 7.31 M0 21.94 C0 17.73, 0 13.52, 0 7.31 M0 7.31 C0 2.44, 2.44 0, 7.31 0 M0 7.31 C0 2.44, 2.44 0, 7.31 0" stroke="#1864ab" stroke-width="1" fill="none"></path></g><g transform="translate(159.8304443359375 396.2574462890625) rotate(0 19 11.5)"><text x="0" y="19" font-family="Helvetica, Segoe UI Emoji" font-size="20px" fill="#1864ab" text-anchor="start" style="white-space: pre;" direction="ltr">digit</text></g><g stroke-linecap="round" transform="translate(148.82281494140625 393.873291015625) rotate(0 31.2012939453125 14.628982543945312)"><path d="M7.31 0 M7.31 0 C19.72 0, 32.13 0, 55.09 0 M7.31 0 C17.24 0, 27.17 0, 55.09 0 M55.09 0 C59.96 0, 62.4 2.44, 62.4 7.31 M55.09 0 C59.96 0, 62.4 2.44, 62.4 7.31 M62.4 7.31 C62.4 11.64, 62.4 15.97, 62.4 21.94 M62.4 7.31 C62.4 12.59, 62.4 17.86, 62.4 21.94 M62.4 21.94 C62.4 26.82, 59.96 29.26, 55.09 29.26 M62.4 21.94 C62.4 26.82, 59.96 29.26, 55.09 29.26 M55.09 29.26 C36 29.26, 16.91 29.26, 7.31 29.26 M55.09 29.26 C36.55 29.26, 18 29.26, 7.31 29.26 M7.31 29.26 C2.44 29.26, 0 26.82, 0 21.94 M7.31 29.26 C2.44 29.26, 0 26.82, 0 21.94 M0 21.94 C0 16.37, 0 10.8, 0 7.31 M0 21.94 C0 16.77, 0 11.6, 0 7.31 M0 7.31 C0 2.44, 2.44 0, 7.31 0 M0 7.31 C0 2.44, 2.44 0, 7.31 0" stroke="#1864ab" stroke-width="1" fill="none"></path></g><g stroke-linecap="round"><g transform="translate(378.2681884765625 103.41719055175781) rotate(0 16.12192039771844 -24.808048625834118)"><path d="M0 0 C-2.23 -6.47, -20.91 -30.96, -13.41 -38.85 C-5.9 -46.73, 36.78 -53.82, 45.03 -47.3 C53.28 -40.79, 37.6 -7.68, 36.12 0.24 M0 0 C-2.23 -6.47, -20.91 -30.96, -13.41 -38.85 C-5.9 -46.73, 36.78 -53.82, 45.03 -47.3 C53.28 -40.79, 37.6 -7.68, 36.12 0.24" stroke="#000000" stroke-width="1" fill="none"></path></g><g transform="translate(378.2681884765625 103.41719055175781) rotate(0 16.12192039771844 -24.808048625834118)"><path d="M35.39 -23.93 C35.63 -15.96, 35.87 -7.99, 36.12 0.24 M35.39 -23.93 C35.6 -17.04, 35.8 -10.14, 36.12 0.24" stroke="#000000" stroke-width="1" fill="none"></path></g><g transform="translate(378.2681884765625 103.41719055175781) rotate(0 16.12192039771844 -24.808048625834118)"><path d="M51.1 -18.74 C46.16 -12.48, 41.22 -6.22, 36.12 0.24 M51.1 -18.74 C46.83 -13.33, 42.55 -7.91, 36.12 0.24" stroke="#000000" stroke-width="1" fill="none"></path></g></g><g stroke-linecap="round"><g transform="translate(381.80462646484375 498.58021545410156) rotate(0 30.864342956353198 19.113321958376275)"><path d="M0 0 C2.92 6.74, 7.37 34.54, 17.53 40.44 C27.7 46.35, 56.46 43.06, 61 35.44 C65.54 27.82, 47.48 1.53, 44.77 -5.25 M0 0 C2.92 6.74, 7.37 34.54, 17.53 40.44 C27.7 46.35, 56.46 43.06, 61 35.44 C65.54 27.82, 47.48 1.53, 44.77 -5.25" stroke="#000000" stroke-width="1" fill="none"></path></g><g transform="translate(381.80462646484375 498.58021545410156) rotate(0 30.864342956353198 19.113321958376275)"><path d="M61.11 9.34 C57.13 5.78, 53.14 2.22, 44.77 -5.25 M61.11 9.34 C55.23 4.08, 49.34 -1.17, 44.77 -5.25" stroke="#000000" stroke-width="1" fill="none"></path></g><g transform="translate(381.80462646484375 498.58021545410156) rotate(0 30.864342956353198 19.113321958376275)"><path d="M47.92 16.43 C47.15 11.14, 46.38 5.85, 44.77 -5.25 M47.92 16.43 C46.78 8.62, 45.65 0.81, 44.77 -5.25" stroke="#000000" stroke-width="1" fill="none"></path></g></g><g transform="translate(333.60858154296875 14.593917846679688) rotate(0 78 11.5)"><text x="0" y="19" font-family="Helvetica, Segoe UI Emoji" font-size="20px" fill="#1864ab" text-anchor="start" style="white-space: pre;" direction="ltr">letter | - | hyphen </text></g><g stroke-linecap="round" transform="translate(322.13079833984375 10) rotate(0 86 17)"><path d="M8.5 0 M8.5 0 C67.52 0, 126.54 0, 163.5 0 M8.5 0 C65.92 0, 123.35 0, 163.5 0 M163.5 0 C169.17 0, 172 2.83, 172 8.5 M163.5 0 C169.17 0, 172 2.83, 172 8.5 M172 8.5 C172 12.5, 172 16.49, 172 25.5 M172 8.5 C172 15.02, 172 21.55, 172 25.5 M172 25.5 C172 31.17, 169.17 34, 163.5 34 M172 25.5 C172 31.17, 169.17 34, 163.5 34 M163.5 34 C130.44 34, 97.39 34, 8.5 34 M163.5 34 C125.92 34, 88.34 34, 8.5 34 M8.5 34 C2.83 34, 0 31.17, 0 25.5 M8.5 34 C2.83 34, 0 31.17, 0 25.5 M0 25.5 C0 21.06, 0 16.63, 0 8.5 M0 25.5 C0 19.25, 0 13, 0 8.5 M0 8.5 C0 2.83, 2.83 0, 8.5 0 M0 8.5 C0 2.83, 2.83 0, 8.5 0" stroke="#1864ab" stroke-width="1" fill="none"></path></g><g transform="translate(371.521728515625 560.3660888671875) rotate(0 52 11.5)"><text x="0" y="19" font-family="Helvetica, Segoe UI Emoji" font-size="20px" fill="#1864ab" text-anchor="start" style="white-space: pre;" direction="ltr">digit | . | : | -</text></g><g stroke-linecap="round" transform="translate(360.51409912109375 557.98193359375) rotate(0 67.76779174804688 15.220596313476562)"><path d="M7.61 0 M7.61 0 C53.12 0, 98.62 0, 127.93 0 M7.61 0 C55.29 0, 102.98 0, 127.93 0 M127.93 0 C133 0, 135.54 2.54, 135.54 7.61 M127.93 0 C133 0, 135.54 2.54, 135.54 7.61 M135.54 7.61 C135.54 10.79, 135.54 13.98, 135.54 22.83 M135.54 7.61 C135.54 13.55, 135.54 19.48, 135.54 22.83 M135.54 22.83 C135.54 27.9, 133 30.44, 127.93 30.44 M135.54 22.83 C135.54 27.9, 133 30.44, 127.93 30.44 M127.93 30.44 C97.08 30.44, 66.24 30.44, 7.61 30.44 M127.93 30.44 C87.81 30.44, 47.7 30.44, 7.61 30.44 M7.61 30.44 C2.54 30.44, 0 27.9, 0 22.83 M7.61 30.44 C2.54 30.44, 0 27.9, 0 22.83 M0 22.83 C0 17.48, 0 12.13, 0 7.61 M0 22.83 C0 17.76, 0 12.69, 0 7.61 M0 7.61 C0 2.54, 2.54 0, 7.61 0 M0 7.61 C0 2.54, 2.54 0, 7.61 0" stroke="#1864ab" stroke-width="1" fill="none"></path></g><g transform="translate(590.4876098632812 168.12786865234375) rotate(0 21 11.5)"><text x="0" y="19" font-family="Helvetica, Segoe UI Emoji" font-size="20px" fill="#1864ab" text-anchor="start" style="white-space: pre;" direction="ltr">EOF</text></g><g stroke-linecap="round" transform="translate(579.47998046875 165.74371337890625) rotate(0 31.2012939453125 14.628982543945312)"><path d="M7.31 0 M7.31 0 C23.94 0, 40.58 0, 55.09 0 M7.31 0 C17.88 0, 28.45 0, 55.09 0 M55.09 0 C59.96 0, 62.4 2.44, 62.4 7.31 M55.09 0 C59.96 0, 62.4 2.44, 62.4 7.31 M62.4 7.31 C62.4 10.38, 62.4 13.45, 62.4 21.94 M62.4 7.31 C62.4 10.46, 62.4 13.61, 62.4 21.94 M62.4 21.94 C62.4 26.82, 59.96 29.26, 55.09 29.26 M62.4 21.94 C62.4 26.82, 59.96 29.26, 55.09 29.26 M55.09 29.26 C37.12 29.26, 19.15 29.26, 7.31 29.26 M55.09 29.26 C38.81 29.26, 22.54 29.26, 7.31 29.26 M7.31 29.26 C2.44 29.26, 0 26.82, 0 21.94 M7.31 29.26 C2.44 29.26, 0 26.82, 0 21.94 M0 21.94 C0 18.73, 0 15.52, 0 7.31 M0 21.94 C0 17.93, 0 13.92, 0 7.31 M0 7.31 C0 2.44, 2.44 0, 7.31 0 M0 7.31 C0 2.44, 2.44 0, 7.31 0" stroke="#1864ab" stroke-width="1" fill="none"></path></g><g transform="translate(587.1298828125 404.26171875) rotate(0 21 11.5)"><text x="0" y="19" font-family="Helvetica, Segoe UI Emoji" font-size="20px" fill="#1864ab" text-anchor="start" style="white-space: pre;" direction="ltr">EOF</text></g><g stroke-linecap="round" transform="translate(576.1222534179688 401.8775634765625) rotate(0 31.2012939453125 14.628982543945312)"><path d="M7.31 0 M7.31 0 C19.01 0, 30.7 0, 55.09 0 M7.31 0 C17.36 0, 27.41 0, 55.09 0 M55.09 0 C59.96 0, 62.4 2.44, 62.4 7.31 M55.09 0 C59.96 0, 62.4 2.44, 62.4 7.31 M62.4 7.31 C62.4 10.3, 62.4 13.28, 62.4 21.94 M62.4 7.31 C62.4 12.69, 62.4 18.07, 62.4 21.94 M62.4 21.94 C62.4 26.82, 59.96 29.26, 55.09 29.26 M62.4 21.94 C62.4 26.82, 59.96 29.26, 55.09 29.26 M55.09 29.26 C42.5 29.26, 29.91 29.26, 7.31 29.26 M55.09 29.26 C39.73 29.26, 24.38 29.26, 7.31 29.26 M7.31 29.26 C2.44 29.26, 0 26.82, 0 21.94 M7.31 29.26 C2.44 29.26, 0 26.82, 0 21.94 M0 21.94 C0 17.01, 0 12.07, 0 7.31 M0 21.94 C0 17.33, 0 12.73, 0 7.31 M0 7.31 C0 2.44, 2.44 0, 7.31 0 M0 7.31 C0 2.44, 2.44 0, 7.31 0" stroke="#1864ab" stroke-width="1" fill="none"></path></g><g stroke-linecap="round"><g transform="translate(399.31817626953125 190.48341369628906) rotate(0 2.164459228515625 109.83013916015625)"><path d="M0 0 C0.72 36.61, 3.61 183.05, 4.33 219.66 M0 0 C0.72 36.61, 3.61 183.05, 4.33 219.66" stroke="#000000" stroke-width="1" fill="none"></path></g><g transform="translate(399.31817626953125 190.48341369628906) rotate(0 2.164459228515625 109.83013916015625)"><path d="M-6.49 191.68 C-2.45 202.12, 1.59 212.57, 4.33 219.66 M-6.49 191.68 C-2.95 200.82, 0.58 209.97, 4.33 219.66" stroke="#000000" stroke-width="1" fill="none"></path></g><g transform="translate(399.31817626953125 190.48341369628906) rotate(0 2.164459228515625 109.83013916015625)"><path d="M14.03 191.27 C10.41 201.87, 6.79 212.47, 4.33 219.66 M14.03 191.27 C10.86 200.55, 7.69 209.83, 4.33 219.66" stroke="#000000" stroke-width="1" fill="none"></path></g></g><g transform="translate(423.19256591796875 209.58456420898438) rotate(0 19 11.5)"><text x="0" y="19" font-family="Helvetica, Segoe UI Emoji" font-size="20px" fill="#1864ab" text-anchor="start" style="white-space: pre;" direction="ltr">digit</text></g><g stroke-linecap="round" transform="translate(412.1849365234375 207.20040893554688) rotate(0 31.2012939453125 14.628982543945312)"><path d="M7.31 0 M7.31 0 C17.23 0, 27.14 0, 55.09 0 M7.31 0 C23.56 0, 39.81 0, 55.09 0 M55.09 0 C59.96 0, 62.4 2.44, 62.4 7.31 M55.09 0 C59.96 0, 62.4 2.44, 62.4 7.31 M62.4 7.31 C62.4 10.65, 62.4 13.98, 62.4 21.94 M62.4 7.31 C62.4 11.27, 62.4 15.22, 62.4 21.94 M62.4 21.94 C62.4 26.82, 59.96 29.26, 55.09 29.26 M62.4 21.94 C62.4 26.82, 59.96 29.26, 55.09 29.26 M55.09 29.26 C40.67 29.26, 26.26 29.26, 7.31 29.26 M55.09 29.26 C40.65 29.26, 26.21 29.26, 7.31 29.26 M7.31 29.26 C2.44 29.26, 0 26.82, 0 21.94 M7.31 29.26 C2.44 29.26, 0 26.82, 0 21.94 M0 21.94 C0 18.81, 0 15.68, 0 7.31 M0 21.94 C0 17.56, 0 13.18, 0 7.31 M0 7.31 C0 2.44, 2.44 0, 7.31 0 M0 7.31 C0 2.44, 2.44 0, 7.31 0" stroke="#1864ab" stroke-width="1" fill="none"></path></g><g stroke-linecap="round"><g transform="translate(152.96466064453125 274.30043029785156) rotate(0 271.9163818359375 0.8285064697265625)"><path d="M0 0 C90.64 0.28, 453.19 1.38, 543.83 1.66 M0 0 C90.64 0.28, 453.19 1.38, 543.83 1.66" stroke="#000000" stroke-width="1" fill="none"></path></g><g transform="translate(152.96466064453125 274.30043029785156) rotate(0 271.9163818359375 0.8285064697265625)"><path d="M515.61 11.83 C523.16 9.11, 530.7 6.39, 543.83 1.66 M515.61 11.83 C521.65 9.65, 527.7 7.47, 543.83 1.66" stroke="#000000" stroke-width="1" fill="none"></path></g><g transform="translate(152.96466064453125 274.30043029785156) rotate(0 271.9163818359375 0.8285064697265625)"><path d="M515.67 -8.69 C523.2 -5.92, 530.73 -3.16, 543.83 1.66 M515.67 -8.69 C521.7 -6.47, 527.73 -4.26, 543.83 1.66" stroke="#000000" stroke-width="1" fill="none"></path></g></g><g transform="translate(189.76153564453125 243.01922607421875) rotate(0 21 11.5)"><text x="0" y="19" font-family="Helvetica, Segoe UI Emoji" font-size="20px" fill="#1864ab" text-anchor="start" style="white-space: pre;" direction="ltr">EOF</text></g><g stroke-linecap="round" transform="translate(178.75390625 240.63507080078125) rotate(0 31.2012939453125 14.628982543945312)"><path d="M7.31 0 M7.31 0 C21.02 0, 34.73 0, 55.09 0 M7.31 0 C22.06 0, 36.81 0, 55.09 0 M55.09 0 C59.96 0, 62.4 2.44, 62.4 7.31 M55.09 0 C59.96 0, 62.4 2.44, 62.4 7.31 M62.4 7.31 C62.4 11, 62.4 14.69, 62.4 21.94 M62.4 7.31 C62.4 11.65, 62.4 15.99, 62.4 21.94 M62.4 21.94 C62.4 26.82, 59.96 29.26, 55.09 29.26 M62.4 21.94 C62.4 26.82, 59.96 29.26, 55.09 29.26 M55.09 29.26 C40.86 29.26, 26.63 29.26, 7.31 29.26 M55.09 29.26 C36.11 29.26, 17.13 29.26, 7.31 29.26 M7.31 29.26 C2.44 29.26, 0 26.82, 0 21.94 M7.31 29.26 C2.44 29.26, 0 26.82, 0 21.94 M0 21.94 C0 17.92, 0 13.89, 0 7.31 M0 21.94 C0 18.68, 0 15.42, 0 7.31 M0 7.31 C0 2.44, 2.44 0, 7.31 0 M0 7.31 C0 2.44, 2.44 0, 7.31 0" stroke="#1864ab" stroke-width="1" fill="none"></path></g><g stroke-linecap="round"><g transform="translate(379.50286865234375 408.5398712158203) rotate(0 -2.536895751953125 -105.72244262695312)"><path d="M0 0 C-0.85 -35.24, -4.23 -176.2, -5.07 -211.44 M0 0 C-0.85 -35.24, -4.23 -176.2, -5.07 -211.44" stroke="#000000" stroke-width="1" fill="none"></path></g><g transform="translate(379.50286865234375 408.5398712158203) rotate(0 -2.536895751953125 -105.72244262695312)"><path d="M5.86 -183.51 C3.62 -189.24, 1.38 -194.97, -5.07 -211.44 M5.86 -183.51 C3.65 -189.16, 1.44 -194.8, -5.07 -211.44" stroke="#000000" stroke-width="1" fill="none"></path></g><g transform="translate(379.50286865234375 408.5398712158203) rotate(0 -2.536895751953125 -105.72244262695312)"><path d="M-14.66 -183.02 C-12.69 -188.85, -10.72 -194.68, -5.07 -211.44 M-14.66 -183.02 C-12.72 -188.76, -10.78 -194.51, -5.07 -211.44" stroke="#000000" stroke-width="1" fill="none"></path></g></g><g transform="translate(322.54437255859375 307.2940368652344) rotate(0 22.5 11.5)"><text x="0" y="19" font-family="Helvetica, Segoe UI Emoji" font-size="20px" fill="#1864ab" text-anchor="start" style="white-space: pre;" direction="ltr">letter</text></g><g stroke-linecap="round" transform="translate(311.5367431640625 304.9098815917969) rotate(0 31.2012939453125 14.628982543945312)"><path d="M7.31 0 M7.31 0 C19.68 0, 32.05 0, 55.09 0 M7.31 0 C25.17 0, 43.03 0, 55.09 0 M55.09 0 C59.96 0, 62.4 2.44, 62.4 7.31 M55.09 0 C59.96 0, 62.4 2.44, 62.4 7.31 M62.4 7.31 C62.4 11.11, 62.4 14.91, 62.4 21.94 M62.4 7.31 C62.4 10.31, 62.4 13.31, 62.4 21.94 M62.4 21.94 C62.4 26.82, 59.96 29.26, 55.09 29.26 M62.4 21.94 C62.4 26.82, 59.96 29.26, 55.09 29.26 M55.09 29.26 C39.51 29.26, 23.93 29.26, 7.31 29.26 M55.09 29.26 C42.65 29.26, 30.2 29.26, 7.31 29.26 M7.31 29.26 C2.44 29.26, 0 26.82, 0 21.94 M7.31 29.26 C2.44 29.26, 0 26.82, 0 21.94 M0 21.94 C0 16.94, 0 11.94, 0 7.31 M0 21.94 C0 16.42, 0 10.9, 0 7.31 M0 7.31 C0 2.44, 2.44 0, 7.31 0 M0 7.31 C0 2.44, 2.44 0, 7.31 0" stroke="#1864ab" stroke-width="1" fill="none"></path></g><g stroke-linecap="round"><g transform="translate(329.22784423828125 163.7131805419922) rotate(0 -92.79953002929688 36.897064208984375)"><path d="M0 0 C-30.93 12.3, -154.67 61.5, -185.6 73.79 M0 0 C-30.93 12.3, -154.67 61.5, -185.6 73.79" stroke="#000000" stroke-width="1" fill="none"></path></g><g transform="translate(329.22784423828125 163.7131805419922) rotate(0 -92.79953002929688 36.897064208984375)"><path d="M-163.19 53.84 C-171.88 61.58, -180.57 69.31, -185.6 73.79 M-163.19 53.84 C-171.95 61.64, -180.7 69.43, -185.6 73.79" stroke="#000000" stroke-width="1" fill="none"></path></g><g transform="translate(329.22784423828125 163.7131805419922) rotate(0 -92.79953002929688 36.897064208984375)"><path d="M-155.61 72.91 C-167.24 73.25, -178.87 73.6, -185.6 73.79 M-155.61 72.91 C-167.33 73.26, -179.04 73.6, -185.6 73.79" stroke="#000000" stroke-width="1" fill="none"></path></g></g><g stroke-linecap="round"><g transform="translate(339.74334716796875 423.63124084472656) rotate(0 -99.30886840820312 -54.7548828125)"><path d="M0 0 C-33.1 -18.25, -165.51 -91.26, -198.62 -109.51 M0 0 C-33.1 -18.25, -165.51 -91.26, -198.62 -109.51" stroke="#000000" stroke-width="1" fill="none"></path></g><g transform="translate(339.74334716796875 423.63124084472656) rotate(0 -99.30886840820312 -54.7548828125)"><path d="M-168.98 -104.88 C-178.36 -106.35, -187.74 -107.81, -198.62 -109.51 M-168.98 -104.88 C-178.95 -106.44, -188.92 -108, -198.62 -109.51" stroke="#000000" stroke-width="1" fill="none"></path></g><g transform="translate(339.74334716796875 423.63124084472656) rotate(0 -99.30886840820312 -54.7548828125)"><path d="M-178.88 -86.91 C-185.13 -94.06, -191.37 -101.21, -198.62 -109.51 M-178.88 -86.91 C-185.52 -94.51, -192.16 -102.12, -198.62 -109.51" stroke="#000000" stroke-width="1" fill="none"></path></g></g><g stroke-linecap="round"><g transform="translate(30.175933837890625 229.34549713134766) rotate(0 16.12192039771844 -24.808048625834118)"><path d="M0 0 C-2.23 -6.47, -20.91 -30.96, -13.41 -38.85 C-5.9 -46.73, 36.78 -53.82, 45.03 -47.3 C53.28 -40.79, 37.6 -7.68, 36.12 0.24 M0 0 C-2.23 -6.47, -20.91 -30.96, -13.41 -38.85 C-5.9 -46.73, 36.78 -53.82, 45.03 -47.3 C53.28 -40.79, 37.6 -7.68, 36.12 0.24" stroke="#000000" stroke-width="1" fill="none"></path></g><g transform="translate(30.175933837890625 229.34549713134766) rotate(0 16.12192039771844 -24.808048625834118)"><path d="M35.39 -23.93 C35.61 -16.63, 35.83 -9.33, 36.12 0.24 M35.39 -23.93 C35.57 -17.99, 35.75 -12.04, 36.12 0.24" stroke="#000000" stroke-width="1" fill="none"></path></g><g transform="translate(30.175933837890625 229.34549713134766) rotate(0 16.12192039771844 -24.808048625834118)"><path d="M51.1 -18.74 C46.57 -13.01, 42.05 -7.27, 36.12 0.24 M51.1 -18.74 C47.42 -14.08, 43.73 -9.41, 36.12 0.24" stroke="#000000" stroke-width="1" fill="none"></path></g></g><g transform="translate(32.82696533203125 138.7786865234375) rotate(0 23.5 11.5)"><text x="0" y="19" font-family="Helvetica, Segoe UI Emoji" font-size="20px" fill="#1864ab" text-anchor="start" style="white-space: pre;" direction="ltr">other</text></g><g stroke-linecap="round" transform="translate(21.8193359375 136.39453125) rotate(0 31.2012939453125 14.628982543945312)"><path d="M7.31 0 M7.31 0 C21.8 0, 36.28 0, 55.09 0 M7.31 0 C21.77 0, 36.22 0, 55.09 0 M55.09 0 C59.96 0, 62.4 2.44, 62.4 7.31 M55.09 0 C59.96 0, 62.4 2.44, 62.4 7.31 M62.4 7.31 C62.4 10.71, 62.4 14.11, 62.4 21.94 M62.4 7.31 C62.4 12.31, 62.4 17.3, 62.4 21.94 M62.4 21.94 C62.4 26.82, 59.96 29.26, 55.09 29.26 M62.4 21.94 C62.4 26.82, 59.96 29.26, 55.09 29.26 M55.09 29.26 C45.12 29.26, 35.14 29.26, 7.31 29.26 M55.09 29.26 C42.94 29.26, 30.79 29.26, 7.31 29.26 M7.31 29.26 C2.44 29.26, 0 26.82, 0 21.94 M7.31 29.26 C2.44 29.26, 0 26.82, 0 21.94 M0 21.94 C0 18.68, 0 15.41, 0 7.31 M0 21.94 C0 16.72, 0 11.5, 0 7.31 M0 7.31 C0 2.44, 2.44 0, 7.31 0 M0 7.31 C0 2.44, 2.44 0, 7.31 0" stroke="#1864ab" stroke-width="1" fill="none"></path></g><g transform="translate(283.11077880859375 187.88714599609375) rotate(0 23.5 11.5)"><text x="0" y="19" font-family="Helvetica, Segoe UI Emoji" font-size="20px" fill="#1864ab" text-anchor="start" style="white-space: pre;" direction="ltr">other</text></g><g stroke-linecap="round" transform="translate(272.1031494140625 185.50299072265625) rotate(0 31.2012939453125 14.628982543945312)"><path d="M7.31 0 M7.31 0 C23.45 0, 39.59 0, 55.09 0 M7.31 0 C18.54 0, 29.77 0, 55.09 0 M55.09 0 C59.96 0, 62.4 2.44, 62.4 7.31 M55.09 0 C59.96 0, 62.4 2.44, 62.4 7.31 M62.4 7.31 C62.4 12.03, 62.4 16.75, 62.4 21.94 M62.4 7.31 C62.4 10.41, 62.4 13.5, 62.4 21.94 M62.4 21.94 C62.4 26.82, 59.96 29.26, 55.09 29.26 M62.4 21.94 C62.4 26.82, 59.96 29.26, 55.09 29.26 M55.09 29.26 C45.31 29.26, 35.54 29.26, 7.31 29.26 M55.09 29.26 C42.99 29.26, 30.89 29.26, 7.31 29.26 M7.31 29.26 C2.44 29.26, 0 26.82, 0 21.94 M7.31 29.26 C2.44 29.26, 0 26.82, 0 21.94 M0 21.94 C0 18.04, 0 14.14, 0 7.31 M0 21.94 C0 18.8, 0 15.66, 0 7.31 M0 7.31 C0 2.44, 2.44 0, 7.31 0 M0 7.31 C0 2.44, 2.44 0, 7.31 0" stroke="#1864ab" stroke-width="1" fill="none"></path></g><g transform="translate(214.4317626953125 323.43145751953125) rotate(0 23.5 11.5)"><text x="0" y="19" font-family="Helvetica, Segoe UI Emoji" font-size="20px" fill="#1864ab" text-anchor="start" style="white-space: pre;" direction="ltr">other</text></g><g stroke-linecap="round" transform="translate(203.42413330078125 321.04730224609375) rotate(0 31.2012939453125 14.628982543945312)"><path d="M7.31 0 M7.31 0 C21.66 0, 36 0, 55.09 0 M7.31 0 C19.95 0, 32.59 0, 55.09 0 M55.09 0 C59.96 0, 62.4 2.44, 62.4 7.31 M55.09 0 C59.96 0, 62.4 2.44, 62.4 7.31 M62.4 7.31 C62.4 11.29, 62.4 15.26, 62.4 21.94 M62.4 7.31 C62.4 13.03, 62.4 18.74, 62.4 21.94 M62.4 21.94 C62.4 26.82, 59.96 29.26, 55.09 29.26 M62.4 21.94 C62.4 26.82, 59.96 29.26, 55.09 29.26 M55.09 29.26 C37.22 29.26, 19.35 29.26, 7.31 29.26 M55.09 29.26 C42.74 29.26, 30.38 29.26, 7.31 29.26 M7.31 29.26 C2.44 29.26, 0 26.82, 0 21.94 M7.31 29.26 C2.44 29.26, 0 26.82, 0 21.94 M0 21.94 C0 18.13, 0 14.33, 0 7.31 M0 21.94 C0 17.27, 0 12.6, 0 7.31 M0 7.31 C0 2.44, 2.44 0, 7.31 0 M0 7.31 C0 2.44, 2.44 0, 7.31 0" stroke="#1864ab" stroke-width="1" fill="none"></path></g></svg>